<svg xmlns="http://www.w3.org/2000/svg" xmlns:xlink="http://www.w3.org/1999/xlink" width="432" height="432" viewBox="0 0 432 432" fill="none">
<g opacity="0.65">
<path d="M235.75 0L196.25 0L215.751 216L235.75 0ZM341.103 38.8135L306.896 19.0635L215.784 215.87L341.103 38.8135ZM90.897 38.8246L125.104 19.0746L215.785 216.13L90.897 38.8246ZM19.0746 125.103L38.8246 90.8959L215.881 216.215L19.0746 125.103ZM412.936 125.103L393.186 90.896L215.881 215.784L412.936 125.103ZM0 196.25L0 235.75L216 216.249L0 196.25ZM432 196.25L216 215.751L432 235.75L432 196.25ZM412.937 306.896L393.187 341.103L216.13 215.784L412.937 306.896ZM341.104 393.187L306.897 412.937L216.216 215.881L341.104 393.187ZM235.75 432L216.249 216L196.25 432L235.75 432ZM90.896 393.176L125.103 412.926L216.215 216.119L90.896 393.176ZM19.0745 306.896L38.8245 341.103L216.13 216.215L19.0745 306.896Z" fill-rule="evenodd"  fill="url(#linear_fill_29DAB654-11C7-43CB-945A-71BDA0917C66)" >
</path>
</g>
<rect x="139.25" y="36" width="154" height="44"   fill="#EA8139" >
</rect>
<path d="M241.25 211.994L138.851 36.1519L117.567 62.8907L213.608 227.813L241.25 211.994Z"   fill="#FFA15C" >
</path>
<path d="M126.657 80.3604L149.798 54.9002L145.278 47.2048L122.858 73.6365L126.657 80.3604Z"   fill="#FFB37B" >
</path>
<path d="M137.296 97.5006L160.437 72.0404L155.917 64.345L133.497 90.7766L137.296 97.5006Z"   fill="#FFB37B" >
</path>
<path d="M147.935 115.959L171.076 90.4991L166.556 82.8037L144.136 109.235L147.935 115.959Z"   fill="#FFB37B" >
</path>
<path d="M158.574 134.418L181.715 108.958L177.195 101.262L154.775 127.694L158.574 134.418Z"   fill="#FFB37B" >
</path>
<path d="M313.933 62.8905L292.649 36.1518L190.25 211.994L217.892 227.812L313.933 62.8905Z"   fill="#FFA15C" >
</path>
<path d="M286.222 47.2048L281.702 54.9002L304.843 80.3604L308.642 73.6365L286.222 47.2048Z"   fill="#FFB37B" >
</path>
<path d="M275.583 64.345L271.063 72.0404L294.204 97.5006L298.003 90.7766L275.583 64.345Z"   fill="#FFB37B" >
</path>
<path d="M264.944 82.8037L260.424 90.4991L283.565 115.959L287.364 109.235L264.944 82.8037Z"   fill="#FFB37B" >
</path>
<path d="M254.305 101.262L249.785 108.958L272.926 134.418L276.725 127.694L254.305 101.262Z"   fill="#FFB37B" >
</path>
<g filter="url(#filter_86A83E4D-74D4-46A0-AFB3-20956790C00A)">
<circle cx="215.75" cy="216.5" r="115.5"   fill="url(#linear_fill_86A83E4D-74D4-46A0-AFB3-20956790C00A)" >
</circle>
</g>
<circle cx="215.75" cy="216.5" r="88.5"   fill="url(#linear_fill_762245EF-E2BA-470A-9CE4-2EE24AC8B358)" >
</circle>
<circle cx="215.74997194657414" cy="216.50009401688664" r="76.40683229813665"   fill="url(#linear_fill_E51C722C-C475-439D-B82B-806CCA22131B)" >
</circle>
<g filter="url(#filter_425478DB-B73C-4E54-B8AE-4DC7DECAA460)">
<path d="M184.968 258L215.25 242.116L245.532 258L239.75 224.353L264.25 200.526L230.391 195.616L215.25 165L200.109 195.616L166.25 200.526L190.75 224.353L184.968 258Z"   fill="#FFF5EA" >
</path>
</g>
<g mask="url(#mask-425478DB-B73C-4E54-B8AE-4DC7DECAA460)">
<path d="M215.25 216.409L230.392 195.614L215.25 165L215.25 216.409Z"   fill="#F5A05E" fill-opacity="0.31">
</path>
</g>
<g mask="url(#mask-425478DB-B73C-4E54-B8AE-4DC7DECAA460)">
<path d="M215.25 216.409L200.109 195.614L166.25 200.523L215.25 216.409Z"   fill="#FFD2B0" fill-opacity="0.31">
</path>
</g>
<g mask="url(#mask-425478DB-B73C-4E54-B8AE-4DC7DECAA460)">
<path d="M215.25 216.409L190.75 224.352L184.967 258L215.25 216.409Z"   fill="#F5A05E" fill-opacity="0.31">
</path>
</g>
<g mask="url(#mask-425478DB-B73C-4E54-B8AE-4DC7DECAA460)">
<path d="M215.25 216.409L215.25 242.114L245.534 258L215.25 216.409Z"   fill="#FFC192" fill-opacity="0.31">
</path>
</g>
<g mask="url(#mask-425478DB-B73C-4E54-B8AE-4DC7DECAA460)">
<path d="M215.25 216.409L239.75 224.352L264.25 200.523L215.25 216.409Z"   fill="#FBB076" fill-opacity="0.31">
</path>
</g>
<g filter="url(#filter_60442E13-54C1-4F0A-ADD9-AF57BFA85836)">
<path d="M221.895 315.584L217.526 314.95L215.573 311L213.619 314.95L209.25 315.584L212.411 318.658L211.665 323L215.573 320.95L219.48 323L218.734 318.658L221.895 315.584Z"   fill="#FFF5EA" >
</path>
</g>
<g filter="url(#filter_535A284E-3AF9-4FE0-BB72-33675D231C4E)">
<path d="M240.665 319L244.573 316.95L248.48 319L247.734 314.658L250.895 311.584L246.526 310.95L244.573 307L242.619 310.95L238.25 311.584L241.411 314.658L240.665 319Z"   fill="#FFF5EA" >
</path>
</g>
<g filter="url(#filter_123514F6-669D-4600-BCCE-EC1FFE6CAE95)">
<path d="M186.573 316.95L190.48 319L189.734 314.658L192.895 311.584L188.526 310.95L186.573 307L184.619 310.95L180.25 311.584L183.411 314.658L182.665 319L186.573 316.95Z"   fill="#FFF5EA" >
</path>
</g>
<g filter="url(#filter_61AF667F-D0F8-4252-9E8C-76E4A7C749AD)">
<path d="M264.25 299.584L267.411 302.658L266.665 307L270.573 304.95L274.48 307L273.734 302.658L276.895 299.584L272.526 298.95L270.573 295L268.619 298.95L264.25 299.584Z"   fill="#FFF5EA" >
</path>
</g>
<g filter="url(#filter_D67A1EA8-D035-447B-ADED-991C9BAE8937)">
<path d="M165.895 299.584L161.526 298.95L159.573 295L157.619 298.95L153.25 299.584L156.411 302.658L155.665 307L159.573 304.95L163.48 307L162.734 302.658L165.895 299.584Z"   fill="#FFF5EA" >
</path>
</g>
<path d="M354.25 303.022L359.782 308.402L358.477 316L365.315 312.413L372.152 316L370.847 308.402L376.379 303.022L368.733 301.913L365.315 295L361.896 301.913L354.25 303.022Z"   fill="#FFB96E" >
</path>
<path d="M358.255 153.621L354.25 154.202L357.148 157.02L356.464 161L360.046 159.121L363.627 161L362.944 157.02L365.841 154.202L361.837 153.621L360.046 150L358.255 153.621Z"   fill="#FFB96E" >
</path>
<path d="M82.4262 167L81.6801 162.658L84.8414 159.584L80.4725 158.95L78.5188 155L76.5651 158.95L72.1962 159.584L75.3575 162.658L74.6115 167L78.5188 164.95L82.4262 167Z"   fill="#FFB96E" >
</path>
<path fill-rule="evenodd"  fill="rgba(255, 185, 110, 1)"  d="M16.25 323C19.0114 323 21.25 320.761 21.25 318C21.25 315.239 19.0114 313 16.25 313C13.4886 313 11.25 315.239 11.25 318C11.25 320.761 13.4886 323 16.25 323ZM16.25 315C17.9069 315 19.25 316.343 19.25 318C19.25 319.657 17.9069 321 16.25 321C14.5931 321 13.25 319.657 13.25 318C13.25 316.343 14.5931 315 16.25 315Z">
</path>
<path fill-rule="evenodd"  fill="rgba(255, 185, 110, 1)"  d="M93.25 46C94.9069 46 96.25 44.6569 96.25 43C96.25 41.3431 94.9069 40 93.25 40C91.5931 40 90.25 41.3431 90.25 43C90.25 44.6569 91.5931 46 93.25 46ZM93.25 42C93.8023 42 94.25 42.4477 94.25 43C94.25 43.5523 93.8023 44 93.25 44C92.6977 44 92.25 43.5523 92.25 43C92.25 42.4477 92.6977 42 93.25 42Z">
</path>
<defs>
<radialGradient id="linear_fill_29DAB654-11C7-43CB-945A-71BDA0917C66" cx="0" cy="0" r="1" gradientTransform="translate(216 216) rotate(-180) scale(296.6689453125, 296.6689453125)" gradientUnits="userSpaceOnUse">
<stop offset="0" stop-color="#FFE8C6"  />
<stop offset="1" stop-color="#FFFFFF"  />
</radialGradient>
<linearGradient id="linear_fill_86A83E4D-74D4-46A0-AFB3-20956790C00A" x1="215.75" y1="101" x2="215.75" y2="330.9002685546875" gradientUnits="userSpaceOnUse">
<stop offset="0" stop-color="#FFF0CD"  />
<stop offset="1" stop-color="#FF8F52"  />
</linearGradient>
<filter id="filter_86A83E4D-74D4-46A0-AFB3-20956790C00A" x="77.25" y="88" width="277" height="277" filterUnits="userSpaceOnUse" color-interpolation-filters="sRGB">
<feFlood flood-opacity="0" result="feFloodId_86A83E4D-74D4-46A0-AFB3-20956790C00A"/>
<feColorMatrix in="SourceAlpha" type="matrix" values="0 0 0 0 0 0 0 0 0 0 0 0 0 0 0 0 0 0 127 0" result="hardAlpha_86A83E4D-74D4-46A0-AFB3-20956790C00A"/>
<feOffset dx="0" dy="10"/>
<feGaussianBlur stdDeviation="11.5"/>
<feComposite in2="hardAlpha_86A83E4D-74D4-46A0-AFB3-20956790C00A" operator="out"/>
<feColorMatrix type="matrix" values="0 0 0 0 0.8705882352941177 0 0 0 0 0.7333333333333333 0 0 0 0 0.5372549019607843 0 0 0 0.5 0"/>
<feBlend mode="normal" in2="feFloodId_86A83E4D-74D4-46A0-AFB3-20956790C00A" result="dropShadow_1_86A83E4D-74D4-46A0-AFB3-20956790C00A"/>
<feBlend mode="normal" in="SourceGraphic" in2="dropShadow_1_86A83E4D-74D4-46A0-AFB3-20956790C00A" result="shape_86A83E4D-74D4-46A0-AFB3-20956790C00A"/>
</filter>
<linearGradient id="linear_fill_762245EF-E2BA-470A-9CE4-2EE24AC8B358" x1="215.75" y1="304.1573486328125" x2="215.75" y2="128.00000000000003" gradientUnits="userSpaceOnUse">
<stop offset="0" stop-color="#FFF0CD"  />
<stop offset="1" stop-color="#FF8F52"  />
</linearGradient>
<linearGradient id="linear_fill_E51C722C-C475-439D-B82B-806CCA22131B" x1="215.74997194657414" y1="140.09326171875" x2="215.74997194657414" y2="292.17941985515336" gradientUnits="userSpaceOnUse">
<stop offset="0" stop-color="#FFF0CD"  />
<stop offset="1" stop-color="#FF8F52"  />
</linearGradient>
<filter id="filter_425478DB-B73C-4E54-B8AE-4DC7DECAA460" x="153.25" y="159" width="124" height="119" filterUnits="userSpaceOnUse" color-interpolation-filters="sRGB">
<feFlood flood-opacity="0" result="feFloodId_425478DB-B73C-4E54-B8AE-4DC7DECAA460"/>
<feColorMatrix in="SourceAlpha" type="matrix" values="0 0 0 0 0 0 0 0 0 0 0 0 0 0 0 0 0 0 127 0" result="hardAlpha_425478DB-B73C-4E54-B8AE-4DC7DECAA460"/>
<feOffset dx="0" dy="7"/>
<feGaussianBlur stdDeviation="6.5"/>
<feComposite in2="hardAlpha_425478DB-B73C-4E54-B8AE-4DC7DECAA460" operator="out"/>
<feColorMatrix type="matrix" values="0 0 0 0 0.5490196078431373 0 0 0 0 0.28627450980392155 0 0 0 0 0.09803921568627451 0 0 0 0.18 0"/>
<feBlend mode="normal" in2="feFloodId_425478DB-B73C-4E54-B8AE-4DC7DECAA460" result="dropShadow_1_425478DB-B73C-4E54-B8AE-4DC7DECAA460"/>
<feBlend mode="normal" in="SourceGraphic" in2="dropShadow_1_425478DB-B73C-4E54-B8AE-4DC7DECAA460" result="shape_425478DB-B73C-4E54-B8AE-4DC7DECAA460"/>
</filter>
<mask id="mask-425478DB-B73C-4E54-B8AE-4DC7DECAA460" style="mask-type:alpha" maskUnits="userSpaceOnUse">
<path d="M184.968 258L215.25 242.116L245.532 258L239.75 224.353L264.25 200.526L230.391 195.616L215.25 165L200.109 195.616L166.25 200.526L190.75 224.353L184.968 258Z"   fill="#FFF5EA" >
</path>
</mask>
<filter id="filter_60442E13-54C1-4F0A-ADD9-AF57BFA85836" x="196.25" y="305" width="38.6451416015625" height="38" filterUnits="userSpaceOnUse" color-interpolation-filters="sRGB">
<feFlood flood-opacity="0" result="feFloodId_60442E13-54C1-4F0A-ADD9-AF57BFA85836"/>
<feColorMatrix in="SourceAlpha" type="matrix" values="0 0 0 0 0 0 0 0 0 0 0 0 0 0 0 0 0 0 127 0" result="hardAlpha_60442E13-54C1-4F0A-ADD9-AF57BFA85836"/>
<feOffset dx="0" dy="7"/>
<feGaussianBlur stdDeviation="6.5"/>
<feComposite in2="hardAlpha_60442E13-54C1-4F0A-ADD9-AF57BFA85836" operator="out"/>
<feColorMatrix type="matrix" values="0 0 0 0 0.5490196078431373 0 0 0 0 0.28627450980392155 0 0 0 0 0.09803921568627451 0 0 0 0.18 0"/>
<feBlend mode="normal" in2="feFloodId_60442E13-54C1-4F0A-ADD9-AF57BFA85836" result="dropShadow_1_60442E13-54C1-4F0A-ADD9-AF57BFA85836"/>
<feBlend mode="normal" in="SourceGraphic" in2="dropShadow_1_60442E13-54C1-4F0A-ADD9-AF57BFA85836" result="shape_60442E13-54C1-4F0A-ADD9-AF57BFA85836"/>
</filter>
<filter id="filter_535A284E-3AF9-4FE0-BB72-33675D231C4E" x="225.25" y="301" width="38.6451416015625" height="38" filterUnits="userSpaceOnUse" color-interpolation-filters="sRGB">
<feFlood flood-opacity="0" result="feFloodId_535A284E-3AF9-4FE0-BB72-33675D231C4E"/>
<feColorMatrix in="SourceAlpha" type="matrix" values="0 0 0 0 0 0 0 0 0 0 0 0 0 0 0 0 0 0 127 0" result="hardAlpha_535A284E-3AF9-4FE0-BB72-33675D231C4E"/>
<feOffset dx="0" dy="7"/>
<feGaussianBlur stdDeviation="6.5"/>
<feComposite in2="hardAlpha_535A284E-3AF9-4FE0-BB72-33675D231C4E" operator="out"/>
<feColorMatrix type="matrix" values="0 0 0 0 0.5490196078431373 0 0 0 0 0.28627450980392155 0 0 0 0 0.09803921568627451 0 0 0 0.18 0"/>
<feBlend mode="normal" in2="feFloodId_535A284E-3AF9-4FE0-BB72-33675D231C4E" result="dropShadow_1_535A284E-3AF9-4FE0-BB72-33675D231C4E"/>
<feBlend mode="normal" in="SourceGraphic" in2="dropShadow_1_535A284E-3AF9-4FE0-BB72-33675D231C4E" result="shape_535A284E-3AF9-4FE0-BB72-33675D231C4E"/>
</filter>
<filter id="filter_123514F6-669D-4600-BCCE-EC1FFE6CAE95" x="167.25" y="301" width="38.6451416015625" height="38" filterUnits="userSpaceOnUse" color-interpolation-filters="sRGB">
<feFlood flood-opacity="0" result="feFloodId_123514F6-669D-4600-BCCE-EC1FFE6CAE95"/>
<feColorMatrix in="SourceAlpha" type="matrix" values="0 0 0 0 0 0 0 0 0 0 0 0 0 0 0 0 0 0 127 0" result="hardAlpha_123514F6-669D-4600-BCCE-EC1FFE6CAE95"/>
<feOffset dx="0" dy="7"/>
<feGaussianBlur stdDeviation="6.5"/>
<feComposite in2="hardAlpha_123514F6-669D-4600-BCCE-EC1FFE6CAE95" operator="out"/>
<feColorMatrix type="matrix" values="0 0 0 0 0.5490196078431373 0 0 0 0 0.28627450980392155 0 0 0 0 0.09803921568627451 0 0 0 0.18 0"/>
<feBlend mode="normal" in2="feFloodId_123514F6-669D-4600-BCCE-EC1FFE6CAE95" result="dropShadow_1_123514F6-669D-4600-BCCE-EC1FFE6CAE95"/>
<feBlend mode="normal" in="SourceGraphic" in2="dropShadow_1_123514F6-669D-4600-BCCE-EC1FFE6CAE95" result="shape_123514F6-669D-4600-BCCE-EC1FFE6CAE95"/>
</filter>
<filter id="filter_61AF667F-D0F8-4252-9E8C-76E4A7C749AD" x="251.25" y="289" width="38.6451416015625" height="38" filterUnits="userSpaceOnUse" color-interpolation-filters="sRGB">
<feFlood flood-opacity="0" result="feFloodId_61AF667F-D0F8-4252-9E8C-76E4A7C749AD"/>
<feColorMatrix in="SourceAlpha" type="matrix" values="0 0 0 0 0 0 0 0 0 0 0 0 0 0 0 0 0 0 127 0" result="hardAlpha_61AF667F-D0F8-4252-9E8C-76E4A7C749AD"/>
<feOffset dx="0" dy="7"/>
<feGaussianBlur stdDeviation="6.5"/>
<feComposite in2="hardAlpha_61AF667F-D0F8-4252-9E8C-76E4A7C749AD" operator="out"/>
<feColorMatrix type="matrix" values="0 0 0 0 0.5490196078431373 0 0 0 0 0.28627450980392155 0 0 0 0 0.09803921568627451 0 0 0 0.18 0"/>
<feBlend mode="normal" in2="feFloodId_61AF667F-D0F8-4252-9E8C-76E4A7C749AD" result="dropShadow_1_61AF667F-D0F8-4252-9E8C-76E4A7C749AD"/>
<feBlend mode="normal" in="SourceGraphic" in2="dropShadow_1_61AF667F-D0F8-4252-9E8C-76E4A7C749AD" result="shape_61AF667F-D0F8-4252-9E8C-76E4A7C749AD"/>
</filter>
<filter id="filter_D67A1EA8-D035-447B-ADED-991C9BAE8937" x="140.25" y="289" width="38.6451416015625" height="38" filterUnits="userSpaceOnUse" color-interpolation-filters="sRGB">
<feFlood flood-opacity="0" result="feFloodId_D67A1EA8-D035-447B-ADED-991C9BAE8937"/>
<feColorMatrix in="SourceAlpha" type="matrix" values="0 0 0 0 0 0 0 0 0 0 0 0 0 0 0 0 0 0 127 0" result="hardAlpha_D67A1EA8-D035-447B-ADED-991C9BAE8937"/>
<feOffset dx="0" dy="7"/>
<feGaussianBlur stdDeviation="6.5"/>
<feComposite in2="hardAlpha_D67A1EA8-D035-447B-ADED-991C9BAE8937" operator="out"/>
<feColorMatrix type="matrix" values="0 0 0 0 0.5490196078431373 0 0 0 0 0.28627450980392155 0 0 0 0 0.09803921568627451 0 0 0 0.18 0"/>
<feBlend mode="normal" in2="feFloodId_D67A1EA8-D035-447B-ADED-991C9BAE8937" result="dropShadow_1_D67A1EA8-D035-447B-ADED-991C9BAE8937"/>
<feBlend mode="normal" in="SourceGraphic" in2="dropShadow_1_D67A1EA8-D035-447B-ADED-991C9BAE8937" result="shape_D67A1EA8-D035-447B-ADED-991C9BAE8937"/>
</filter>
</defs>
</svg>
